<?xml version="1.0" encoding="UTF-8" standalone="no"?>
<!-- Generator: Adobe Illustrator 19.0.0, SVG Export Plug-In . SVG Version: 6.00 Build 0)  -->

<svg
   xmlns:dc="http://purl.org/dc/elements/1.1/"
   xmlns:cc="http://creativecommons.org/ns#"
   xmlns:rdf="http://www.w3.org/1999/02/22-rdf-syntax-ns#"
   xmlns:svg="http://www.w3.org/2000/svg"
   xmlns="http://www.w3.org/2000/svg"
   xmlns:sodipodi="http://sodipodi.sourceforge.net/DTD/sodipodi-0.dtd"
   xmlns:inkscape="http://www.inkscape.org/namespaces/inkscape"
   version="1.1"
   id="Capa_1"
   x="0px"
   y="0px"
   viewBox="0 0 512 512"
   style="enable-background:new 0 0 512 512;"
   xml:space="preserve"
   sodipodi:docname="settings.svg"
   inkscape:version="0.92.4 (5da689c313, 2019-01-14)"><metadata
   id="metadata4854"><rdf:RDF><cc:Work
       rdf:about=""><dc:format>image/svg+xml</dc:format><dc:type
         rdf:resource="http://purl.org/dc/dcmitype/StillImage" /></cc:Work></rdf:RDF></metadata><defs
   id="defs4852" /><sodipodi:namedview
   pagecolor="#ffffff"
   bordercolor="#666666"
   borderopacity="1"
   objecttolerance="10"
   gridtolerance="10"
   guidetolerance="10"
   inkscape:pageopacity="0"
   inkscape:pageshadow="2"
   inkscape:window-width="1920"
   inkscape:window-height="1001"
   id="namedview4850"
   showgrid="false"
   inkscape:zoom="0.4609375"
   inkscape:cx="-100.88136"
   inkscape:cy="256"
   inkscape:window-x="-9"
   inkscape:window-y="-9"
   inkscape:window-maximized="1"
   inkscape:current-layer="Capa_1" />
<g
   id="g4811"
   style="fill:#ff4b59;fill-opacity:1">
	<g
   id="g4809"
   style="fill:#ff4b59;fill-opacity:1">
		<path
   d="M256,181c-41.353,0-75,33.647-75,75c0,41.353,33.647,75,75,75c41.353,0,75-33.647,75-75C331,214.647,297.353,181,256,181z    "
   id="path4807"
   style="fill:#ff4b59;fill-opacity:1" />
	</g>
</g>
<g
   id="g4817"
   style="fill:#ff4b59;fill-opacity:0.97512436">
	<g
   id="g4815"
   style="fill:#ff4b59;fill-opacity:0.97512436">
		<path
   d="M512,298.305v-84.609l-69.408-13.667c-3.794-12.612-8.833-24.771-15.103-36.343l38.73-58.096l-59.81-59.81l-58.096,38.73    c-11.572-6.27-23.73-11.309-36.343-15.103L298.305,0h-84.609l-13.667,69.408c-12.612,3.794-24.771,8.833-36.343,15.103    L105.59,45.78l-59.81,59.81l38.73,58.096c-6.27,11.572-11.309,23.73-15.103,36.343L0,213.695v84.609l69.408,13.667    c3.794,12.612,8.833,24.771,15.103,36.343L45.78,406.41l59.81,59.81l58.096-38.73c11.572,6.27,23.73,11.309,36.343,15.103    L213.695,512h84.609l13.667-69.408c12.612-3.794,24.771-8.833,36.343-15.103l58.096,38.73l59.81-59.81l-38.73-58.096    c6.27-11.572,11.309-23.73,15.103-36.343L512,298.305z M256,361c-57.891,0-105-47.109-105-105s47.109-105,105-105    s105,47.109,105,105S313.891,361,256,361z"
   id="path4813"
   style="fill:#ff4b59;fill-opacity:0.97512436" />
	</g>
</g>
<g
   id="g4819">
</g>
<g
   id="g4821">
</g>
<g
   id="g4823">
</g>
<g
   id="g4825">
</g>
<g
   id="g4827">
</g>
<g
   id="g4829">
</g>
<g
   id="g4831">
</g>
<g
   id="g4833">
</g>
<g
   id="g4835">
</g>
<g
   id="g4837">
</g>
<g
   id="g4839">
</g>
<g
   id="g4841">
</g>
<g
   id="g4843">
</g>
<g
   id="g4845">
</g>
<g
   id="g4847">
</g>
</svg>