<?xml version="1.0" encoding="UTF-8" standalone="no"?>
<!-- Generator: Adobe Illustrator 19.0.0, SVG Export Plug-In . SVG Version: 6.00 Build 0)  -->

<svg
   xmlns:dc="http://purl.org/dc/elements/1.1/"
   xmlns:cc="http://creativecommons.org/ns#"
   xmlns:rdf="http://www.w3.org/1999/02/22-rdf-syntax-ns#"
   xmlns:svg="http://www.w3.org/2000/svg"
   xmlns="http://www.w3.org/2000/svg"
   xmlns:sodipodi="http://sodipodi.sourceforge.net/DTD/sodipodi-0.dtd"
   xmlns:inkscape="http://www.inkscape.org/namespaces/inkscape"
   version="1.1"
   id="Layer_1"
   x="0px"
   y="0px"
   viewBox="0 0 315 315"
   style="enable-background:new 0 0 315 315;"
   xml:space="preserve"
   sodipodi:docname="google-plus-svgrepo-com.svg"
   inkscape:version="0.92.4 (5da689c313, 2019-01-14)"><metadata
   id="metadata4043"><rdf:RDF><cc:Work
       rdf:about=""><dc:format>image/svg+xml</dc:format><dc:type
         rdf:resource="http://purl.org/dc/dcmitype/StillImage" /></cc:Work></rdf:RDF></metadata><defs
   id="defs4041" /><sodipodi:namedview
   pagecolor="#ffffff"
   bordercolor="#666666"
   borderopacity="1"
   objecttolerance="10"
   gridtolerance="10"
   guidetolerance="10"
   inkscape:pageopacity="0"
   inkscape:pageshadow="2"
   inkscape:window-width="1920"
   inkscape:window-height="1001"
   id="namedview4039"
   showgrid="false"
   inkscape:zoom="0.74920635"
   inkscape:cx="157.5"
   inkscape:cy="157.5"
   inkscape:window-x="-9"
   inkscape:window-y="-9"
   inkscape:window-maximized="1"
   inkscape:current-layer="Layer_1" />
<g
   id="XMLID_510_">
	<path
   id="XMLID_511_"
   d="M307.5,136.892h-19.791V117.1c0-4.143-3.357-7.5-7.5-7.5h-26.717c-4.143,0-7.5,3.357-7.5,7.5v19.792   h-19.791c-4.143,0-7.5,3.357-7.5,7.5v26.717c0,4.143,3.357,7.5,7.5,7.5h19.791v19.792c0,4.142,3.357,7.5,7.5,7.5h26.717   c4.143,0,7.5-3.358,7.5-7.5v-19.792H307.5c4.143,0,7.5-3.357,7.5-7.5v-26.717C315,140.249,311.643,136.892,307.5,136.892z" />
	<path
   id="XMLID_512_"
   d="M101.906,104.16c9.088,0,17.823,2.45,25.274,7.087l8.513,5.825c2.967,2.03,6.958,1.671,9.514-0.861   l24.828-24.596c1.589-1.574,2.392-3.774,2.191-6.001c-0.2-2.227-1.384-4.248-3.228-5.513l-14.43-9.896   c-0.294-0.201-0.603-0.382-0.922-0.539l-13.979-6.902c-0.185-0.092-0.374-0.176-0.566-0.252   c-12.042-4.754-24.729-7.165-37.708-7.165c-26.757,0-51.996,10.27-71.068,28.915c-19.367,18.934-30.137,44.681-30.323,72.499   c-0.187,27.824,10.239,53.72,29.355,72.916c18.968,19.049,45.879,29.975,73.834,29.975c27.658,0,53.608-10.739,71.195-29.463   c13.931-14.831,22.48-34.641,24.727-57.288c0.021-0.215,0.034-0.43,0.036-0.645l0.26-20.345c0.006-0.421-0.024-0.841-0.09-1.257   l-1.09-6.953c-0.571-3.649-3.716-6.339-7.409-6.339h-86.672c-4.143,0-7.5,3.358-7.5,7.5v29.982c0,4.142,3.357,7.5,7.5,7.5h44.186   c-2.025,4.439-5.216,9.12-9.251,13.482c-8.801,9.518-21.926,14.977-36.01,14.977c-14.383,0-28.157-5.636-37.79-15.462   c-20.052-20.448-19.822-56.077,0.489-76.245C75.334,109.605,88.505,104.16,101.906,104.16z" />
</g>
<g
   id="g4008">
</g>
<g
   id="g4010">
</g>
<g
   id="g4012">
</g>
<g
   id="g4014">
</g>
<g
   id="g4016">
</g>
<g
   id="g4018">
</g>
<g
   id="g4020">
</g>
<g
   id="g4022">
</g>
<g
   id="g4024">
</g>
<g
   id="g4026">
</g>
<g
   id="g4028">
</g>
<g
   id="g4030">
</g>
<g
   id="g4032">
</g>
<g
   id="g4034">
</g>
<g
   id="g4036">
</g>
<path
   style="fill:#f2f2f2;stroke-width:1.33474576"
   d="M 77.415254,255.68037 C 71.909428,254.26169 61.700163,250.29071 54.727999,246.85598 44.140146,241.64002 40.181332,238.72045 30.702575,229.13759 17.686328,215.97838 11.96538,207.00513 6.5203388,191.20799 -5.0499675,157.64025 1.8093624,118.805 23.941375,92.575861 44.093354,68.693301 70.216319,56.549903 101.44068,56.549903 c 23.60989,0 40.96483,5.634745 60.90361,19.773996 8.74747,6.203127 10.54455,8.77714 8.61059,12.333174 -1.67855,3.086389 -28.80173,29.601577 -30.27939,29.600657 -0.657,-4.2e-4 -5.09869,-2.41765 -9.87041,-5.37162 -11.66993,-7.22439 -20.88158,-9.80964 -31.933838,-8.96221 -25.041594,1.92003 -43.86558,19.40403 -48.341761,44.90053 -1.909948,10.87914 0.199215,23.7474 5.694886,34.74521 14.808533,29.63449 58.082083,37.0686 81.731503,14.04093 4.92558,-4.79609 10.18536,-12.1644 10.19592,-14.28324 0.003,-0.55058 -9.75534,-1.00991 -21.68463,-1.02074 -29.920836,-0.0271 -28.269523,1.21277 -28.733838,-21.57516 -0.310154,-15.22189 -0.0229,-18.53083 1.763771,-20.31751 1.874297,-1.8743 7.807167,-2.13426 48.708057,-2.13426 h 46.57381 l 1.7154,3.00318 c 1.17724,2.06103 1.68964,8.65606 1.63334,21.02224 -0.0953,20.92315 -1.97943,29.57174 -10.14568,46.57073 -10.62232,22.11154 -33.68788,40.34194 -59.34355,46.90355 -13.86915,3.54713 -37.248161,3.50196 -51.223216,-0.099 z"
   id="path4045"
   inkscape:connector-curvature="0" /><path
   style="fill:#f2f2f2;stroke-width:1.33474576"
   d="m 248.52966,203.41525 c -1.00308,-1.00308 -1.60169,-5.99152 -1.60169,-13.34745 v -11.74577 h -11.34534 c -16.0784,0 -16.68432,-0.74208 -16.68432,-20.43345 0,-19.96277 0.13257,-20.13563 15.90854,-20.74278 l 12.12112,-0.46649 v -11.1172 c 0,-15.22857 0.10923,-15.31211 20.02118,-15.31211 19.93698,0 20.02119,0.065 20.02119,15.44492 v 11.25 h 10.73864 c 9.71956,0 11.06031,0.32168 14.12838,3.38975 3.29954,3.29953 3.37785,3.7998 2.94251,18.79661 -0.5505,18.96385 -0.74818,19.19075 -16.7193,19.19075 h -11.09023 v 11.25 c 0,15.43065 -0.019,15.44492 -20.51695,15.44492 -10.91525,0 -16.85261,-0.53057 -17.92373,-1.6017 z"
   id="path4047"
   inkscape:connector-curvature="0" /></svg>