<?xml version="1.0" encoding="UTF-8" standalone="no"?>
<!-- Generator: Adobe Illustrator 19.0.0, SVG Export Plug-In . SVG Version: 6.00 Build 0)  -->

<svg
   xmlns:dc="http://purl.org/dc/elements/1.1/"
   xmlns:cc="http://creativecommons.org/ns#"
   xmlns:rdf="http://www.w3.org/1999/02/22-rdf-syntax-ns#"
   xmlns:svg="http://www.w3.org/2000/svg"
   xmlns="http://www.w3.org/2000/svg"
   xmlns:sodipodi="http://sodipodi.sourceforge.net/DTD/sodipodi-0.dtd"
   xmlns:inkscape="http://www.inkscape.org/namespaces/inkscape"
   version="1.1"
   id="Layer_1"
   x="0px"
   y="0px"
   viewBox="0 0 310 310"
   style="enable-background:new 0 0 310 310;"
   xml:space="preserve"
   sodipodi:docname="linkedin-svgrepo-com.svg"
   inkscape:version="0.92.4 (5da689c313, 2019-01-14)"><metadata
   id="metadata3957"><rdf:RDF><cc:Work
       rdf:about=""><dc:format>image/svg+xml</dc:format><dc:type
         rdf:resource="http://purl.org/dc/dcmitype/StillImage" /></cc:Work></rdf:RDF></metadata><defs
   id="defs3955" /><sodipodi:namedview
   pagecolor="#ffffff"
   bordercolor="#666666"
   borderopacity="1"
   objecttolerance="10"
   gridtolerance="10"
   guidetolerance="10"
   inkscape:pageopacity="0"
   inkscape:pageshadow="2"
   inkscape:window-width="1920"
   inkscape:window-height="1001"
   id="namedview3953"
   showgrid="false"
   inkscape:zoom="0.76129032"
   inkscape:cx="155"
   inkscape:cy="155"
   inkscape:window-x="-9"
   inkscape:window-y="-9"
   inkscape:window-maximized="1"
   inkscape:current-layer="Layer_1" />
<g
   id="XMLID_801_">
	<path
   id="XMLID_802_"
   d="M72.16,99.73H9.927c-2.762,0-5,2.239-5,5v199.928c0,2.762,2.238,5,5,5H72.16c2.762,0,5-2.238,5-5V104.73   C77.16,101.969,74.922,99.73,72.16,99.73z" />
	<path
   id="XMLID_803_"
   d="M41.066,0.341C18.422,0.341,0,18.743,0,41.362C0,63.991,18.422,82.4,41.066,82.4   c22.626,0,41.033-18.41,41.033-41.038C82.1,18.743,63.692,0.341,41.066,0.341z" />
	<path
   id="XMLID_804_"
   d="M230.454,94.761c-24.995,0-43.472,10.745-54.679,22.954V104.73c0-2.761-2.238-5-5-5h-59.599   c-2.762,0-5,2.239-5,5v199.928c0,2.762,2.238,5,5,5h62.097c2.762,0,5-2.238,5-5v-98.918c0-33.333,9.054-46.319,32.29-46.319   c25.306,0,27.317,20.818,27.317,48.034v97.204c0,2.762,2.238,5,5,5H305c2.762,0,5-2.238,5-5V194.995   C310,145.43,300.549,94.761,230.454,94.761z" />
</g>
<g
   id="g3922">
</g>
<g
   id="g3924">
</g>
<g
   id="g3926">
</g>
<g
   id="g3928">
</g>
<g
   id="g3930">
</g>
<g
   id="g3932">
</g>
<g
   id="g3934">
</g>
<g
   id="g3936">
</g>
<g
   id="g3938">
</g>
<g
   id="g3940">
</g>
<g
   id="g3942">
</g>
<g
   id="g3944">
</g>
<g
   id="g3946">
</g>
<g
   id="g3948">
</g>
<g
   id="g3950">
</g>
<path
   style="fill:#f2f2f2;stroke-width:1.31355929"
   d="m 7.5529661,308.0558 c -2.1579046,-1.25687 -2.2987288,-7.56153 -2.2987288,-102.91362 0,-84.52742 0.3027893,-101.82603 1.8041389,-103.07204 1.2713732,-1.05515 11.6476068,-1.39357 35.1377108,-1.14601 l 33.333574,0.35129 0.336489,102.31328 c 0.244999,74.49484 -0.0666,102.79896 -1.146008,104.09958 -1.176685,1.41782 -8.020183,1.77806 -33.175472,1.74635 -19.072838,-0.024 -32.6083285,-0.57309 -33.9917039,-1.37883 z"
   id="path3959"
   inkscape:connector-curvature="0" /><path
   style="fill:#f2f2f2;stroke-width:1.31355929"
   d="m 108.46247,307.41041 c -1.84068,-1.84068 -2.06416,-12.98735 -2.06416,-102.95357 0,-83.9732 0.30266,-101.14059 1.80513,-102.38753 1.26949,-1.05359 11.30606,-1.39364 33.82415,-1.146 l 32.01902,0.35211 0.39107,8.20975 c 0.21509,4.51536 0.70014,8.20975 1.0779,8.20975 0.37775,0 3.45283,-2.31272 6.83351,-5.13938 14.83944,-12.40759 33.02322,-17.954194 54.74837,-16.699907 31.00638,1.790134 50.49654,13.315697 61.41718,36.319247 9.60572,20.23375 11.41486,39.14068 11.45725,119.73765 0.0247,46.84944 -0.22625,53.68807 -2.03606,55.49788 -1.7611,1.7611 -6.66322,2.06417 -33.38832,2.06417 -17.22829,0 -32.25917,-0.35879 -33.40194,-0.79732 -1.84388,-0.70756 -2.08018,-6.43735 -2.09915,-50.90042 -0.0118,-27.55671 -0.57587,-56.80618 -1.25358,-64.99881 -1.89108,-22.86055 -6.62772,-30.2487 -21.34394,-33.29196 -16.5093,-3.41407 -30.91451,4.58782 -35.92584,19.9563 -2.08458,6.39288 -2.41243,14.01953 -2.87902,66.97511 -0.34116,38.71998 -1.00816,60.341 -1.89444,61.40889 -1.02842,1.23918 -9.29125,1.64821 -33.29543,1.64821 -27.27362,0 -32.22842,-0.30089 -33.9917,-2.06417 z"
   id="path3961"
   inkscape:connector-curvature="0" /><path
   style="fill:#f2f2f2;stroke-width:1.31355929"
   d="M 32.49019,80.865896 C 13.746584,76.198704 1.0817547,60.25857 1.0817547,41.334788 c 0,-7.747663 0.6807101,-10.665657 4.1158712,-17.64346 C 12.344641,9.173678 24.564055,1.5420111 40.720339,1.5055233 56.917243,1.4689438 69.527395,9.1545402 77.259704,23.775424 c 2.908746,5.500093 3.477533,8.276121 3.498799,17.076271 0.02148,8.887023 -0.543359,11.666684 -3.660649,18.014729 C 69.072399,75.209442 49.177611,85.021093 32.49019,80.865896 Z"
   id="path3963"
   inkscape:connector-curvature="0" /></svg>