<?xml version="1.0" encoding="UTF-8" standalone="no"?>
<!-- Generator: Adobe Illustrator 19.0.0, SVG Export Plug-In . SVG Version: 6.00 Build 0)  -->

<svg
   xmlns:dc="http://purl.org/dc/elements/1.1/"
   xmlns:cc="http://creativecommons.org/ns#"
   xmlns:rdf="http://www.w3.org/1999/02/22-rdf-syntax-ns#"
   xmlns:svg="http://www.w3.org/2000/svg"
   xmlns="http://www.w3.org/2000/svg"
   xmlns:sodipodi="http://sodipodi.sourceforge.net/DTD/sodipodi-0.dtd"
   xmlns:inkscape="http://www.inkscape.org/namespaces/inkscape"
   version="1.1"
   id="Layer_1"
   x="0px"
   y="0px"
   viewBox="0 0 310 310"
   style="enable-background:new 0 0 310 310;"
   xml:space="preserve"
   sodipodi:docname="twitter-svgrepo-com.svg"
   inkscape:version="0.92.4 (5da689c313, 2019-01-14)"><metadata
   id="metadata3789"><rdf:RDF><cc:Work
       rdf:about=""><dc:format>image/svg+xml</dc:format><dc:type
         rdf:resource="http://purl.org/dc/dcmitype/StillImage" /></cc:Work></rdf:RDF></metadata><defs
   id="defs3787" /><sodipodi:namedview
   pagecolor="#ffffff"
   bordercolor="#666666"
   borderopacity="1"
   objecttolerance="10"
   gridtolerance="10"
   guidetolerance="10"
   inkscape:pageopacity="0"
   inkscape:pageshadow="2"
   inkscape:window-width="1920"
   inkscape:window-height="1001"
   id="namedview3785"
   showgrid="false"
   inkscape:zoom="2.6064516"
   inkscape:cx="155"
   inkscape:cy="155"
   inkscape:window-x="-9"
   inkscape:window-y="-9"
   inkscape:window-maximized="1"
   inkscape:current-layer="Layer_1" />
<g
   id="XMLID_826_">
	<path
   id="XMLID_827_"
   d="M302.973,57.388c-4.87,2.16-9.877,3.983-14.993,5.463c6.057-6.85,10.675-14.91,13.494-23.73   c0.632-1.977-0.023-4.141-1.648-5.434c-1.623-1.294-3.878-1.449-5.665-0.39c-10.865,6.444-22.587,11.075-34.878,13.783   c-12.381-12.098-29.197-18.983-46.581-18.983c-36.695,0-66.549,29.853-66.549,66.547c0,2.89,0.183,5.764,0.545,8.598   C101.163,99.244,58.83,76.863,29.76,41.204c-1.036-1.271-2.632-1.956-4.266-1.825c-1.635,0.128-3.104,1.05-3.93,2.467   c-5.896,10.117-9.013,21.688-9.013,33.461c0,16.035,5.725,31.249,15.838,43.137c-3.075-1.065-6.059-2.396-8.907-3.977   c-1.529-0.851-3.395-0.838-4.914,0.033c-1.52,0.871-2.473,2.473-2.513,4.224c-0.007,0.295-0.007,0.59-0.007,0.889   c0,23.935,12.882,45.484,32.577,57.229c-1.692-0.169-3.383-0.414-5.063-0.735c-1.732-0.331-3.513,0.276-4.681,1.597   c-1.17,1.32-1.557,3.16-1.018,4.84c7.29,22.76,26.059,39.501,48.749,44.605c-18.819,11.787-40.34,17.961-62.932,17.961   c-4.714,0-9.455-0.277-14.095-0.826c-2.305-0.274-4.509,1.087-5.294,3.279c-0.785,2.193,0.047,4.638,2.008,5.895   c29.023,18.609,62.582,28.445,97.047,28.445c67.754,0,110.139-31.95,133.764-58.753c29.46-33.421,46.356-77.658,46.356-121.367   c0-1.826-0.028-3.67-0.084-5.508c11.623-8.757,21.63-19.355,29.773-31.536c1.237-1.85,1.103-4.295-0.33-5.998   C307.394,57.037,305.009,56.486,302.973,57.388z" />
</g>
<g
   id="g3754">
</g>
<g
   id="g3756">
</g>
<g
   id="g3758">
</g>
<g
   id="g3760">
</g>
<g
   id="g3762">
</g>
<g
   id="g3764">
</g>
<g
   id="g3766">
</g>
<g
   id="g3768">
</g>
<g
   id="g3770">
</g>
<g
   id="g3772">
</g>
<g
   id="g3774">
</g>
<g
   id="g3776">
</g>
<g
   id="g3778">
</g>
<g
   id="g3780">
</g>
<g
   id="g3782">
</g>
<path
   style="fill:#ececec;stroke-width:0.38366336"
   d="M 89.201733,281.45419 C 67.214887,280.12648 46.571473,275.07447 25.888319,265.95968 16.177654,261.68031 2.6022072,253.97202 1.0350564,251.84771 c -1.48716924,-2.01589 -0.7766757,-5.21902 1.4865766,-6.70196 0.8948452,-0.58633 1.6865771,-0.59926 9.490325,-0.15498 24.443627,1.3916 46.544928,-3.77547 67.540461,-15.79028 l 3.505658,-2.00614 -1.340301,-0.36022 c -20.060794,-5.39162 -35.466651,-17.86867 -44.11886,-35.73141 -2.734423,-5.64529 -4.053274,-9.63497 -3.678544,-11.12802 0.148994,-0.59363 0.87261,-1.68105 1.608037,-2.41648 l 1.33714,-1.33714 3.21226,0.24692 c 1.766747,0.1358 3.485609,0.35181 3.819703,0.48001 1.403459,0.53856 0.432124,-0.53314 -1.768397,-1.95111 -5.379876,-3.4667 -11.989982,-9.62542 -16.145389,-15.04287 -8.188134,-10.67495 -13.00925,-23.86577 -13.596108,-37.19964 -0.206206,-4.68514 -0.164121,-5.13752 0.591711,-6.36049 1.731195,-2.80113 3.946292,-2.87759 9.319751,-0.32172 2.190023,1.04169 4.478811,2.01553 5.086194,2.16411 1.302736,0.31867 1.348286,0.41715 -1.703885,-3.68411 C 18.304425,104.63961 14.101388,93.326214 12.97761,80.357179 11.961221,68.627478 14.411867,56.320992 19.951228,45.337538 c 2.303933,-4.568243 3.447931,-5.666746 5.901432,-5.666746 1.930105,0 2.932041,0.717509 6.000414,4.29703 7.618758,8.887938 14.653629,15.698277 23.601172,22.847894 20.980018,16.764278 45.794774,28.388871 71.973774,33.716464 6.00683,1.22242 19.04917,3.13525 19.31538,2.83285 0.0587,-0.0667 -0.0404,-1.93403 -0.22029,-4.149683 -1.15759,-14.26119 3.38292,-30.607233 11.82947,-42.586634 3.86561,-5.482445 11.93487,-13.371409 17.36524,-16.977248 9.47843,-6.293802 19.08827,-9.774515 30.3902,-11.007423 18.1986,-1.985253 38.19605,4.649913 51.22255,16.995678 l 1.61893,1.534331 2.60136,-0.475864 c 6.85863,-1.254639 21.92819,-7.138523 30.02633,-11.72373 3.93044,-2.225435 5.45363,-2.568762 7.28505,-1.642048 1.20818,0.611343 2.69717,2.806605 2.69717,3.976514 0,3.740554 -6.51294,16.576576 -11.5548,22.77276 -2.15688,2.650704 -2.43817,3.105026 -1.79743,2.903105 0.27473,-0.08658 1.70804,-0.53857 3.18515,-1.004428 1.4771,-0.465858 5.09757,-1.790172 8.04548,-2.942921 4.88221,-1.909134 5.48257,-2.059135 6.73709,-1.683273 2.53248,0.758749 3.98147,3.168623 3.41973,5.687468 -0.29825,1.337337 -4.61099,7.451184 -9.14352,12.962079 -3.72826,4.533013 -13.24172,13.879828 -17.57268,17.264851 l -3.43614,2.685644 -0.24923,9.016092 c -0.40551,14.66978 -1.86718,25.62111 -5.24876,39.32549 -8.18079,33.15394 -25.07951,63.28289 -48.7403,86.89975 -29.51656,29.46176 -66.34871,46.257 -109.33766,49.85732 -6.64875,0.55683 -20.609786,0.76696 -26.664607,0.40133 z"
   id="path3793"
   inkscape:connector-curvature="0" /><path
   style="fill:#f2f2f2;stroke-width:0.38366336"
   d="m 87.858911,281.23208 c -0.738552,-0.0869 -3.32828,-0.34212 -5.754951,-0.56708 -20.839857,-1.9319 -43.141169,-8.33051 -62.345297,-17.88786 -7.536527,-3.75072 -15.8817009,-8.61405 -17.6893357,-10.30885 -2.05238204,-1.92428 -2.182796,-4.09293 -0.3725864,-6.19575 l 0.9239359,-1.07328 13.7484492,-0.0198 c 10.886696,-0.0157 14.746697,-0.15879 18.54424,-0.68748 16.57669,-2.30777 30.121592,-6.91697 45.061378,-15.33394 l 3.433902,-1.93464 -5.160387,-1.66223 c -14.567606,-4.69243 -26.238285,-13.07657 -34.788565,-24.9919 -4.20111,-5.85449 -9.313654,-16.70104 -9.313654,-19.75943 0,-1.7132 2.576002,-4.86555 3.658935,-4.47758 1.239114,0.44393 6.699975,0.78474 6.699975,0.41814 0,-0.18636 -1.670217,-1.52219 -3.71159,-2.9685 -16.407835,-11.62494 -26.806241,-29.96637 -28.057349,-49.48949 -0.384087,-5.99354 -0.229481,-7.18215 1.122453,-8.6294 1.032944,-1.10576 1.266608,-1.18196 3.124652,-1.0189 1.237518,0.1086 3.574959,0.86284 6.090674,1.96533 3.764913,1.64993 5.317299,2.11122 5.317299,1.58005 0,-0.11497 -1.20351,-1.88462 -2.674466,-3.93255 -9.00685,-12.53975 -13.042395,-25.828597 -12.54878,-41.322524 0.311661,-9.78262 2.490803,-18.513271 6.712786,-26.894527 2.148075,-4.264244 3.560778,-5.846169 5.47718,-6.133269 1.923555,-0.288171 3.030096,0.579553 8.667908,6.797171 15.971428,17.613969 32.037689,29.83342 52.48299,39.916768 15.147633,7.470613 29.876503,12.218232 46.810013,15.088481 4.22266,0.71575 8.97537,1.41721 10.56157,1.55881 l 2.884,0.25744 -0.007,-7.814 c -0.007,-8.22849 0.27698,-10.702547 1.99703,-17.405587 3.58687,-13.978024 11.0876,-25.573031 22.70934,-35.105198 8.95303,-7.343286 18.85735,-11.767446 30.94108,-13.821072 4.31675,-0.73363 5.89133,-0.817086 12.0626,-0.639343 8.04981,0.231847 11.97755,0.911923 19.25461,3.333877 8.27487,2.754042 16.88047,7.669463 22.44205,12.818637 l 2.73577,2.532901 2.72224,-0.572642 c 6.92762,-1.457269 18.10861,-5.717281 27.76772,-10.579638 7.26066,-3.654989 8.44936,-3.845057 10.49332,-1.677828 1.73843,1.843271 1.79314,3.034116 0.31934,6.95109 -2.13619,5.677459 -6.82034,13.895295 -10.84072,19.0189 -0.95386,1.215598 -1.63207,2.312398 -1.50713,2.437332 0.28214,0.282137 3.7969,-0.859444 11.01874,-3.57884 5.91883,-2.228746 7.36487,-2.389406 8.91113,-0.99006 1.2596,1.139932 1.92085,2.777514 1.66729,4.129092 -0.81579,4.348562 -15.94565,21.73053 -26.17334,30.069304 l -3.89318,3.17417 -0.23795,6.020695 c -0.59462,15.04603 -1.35999,22.86782 -3.14018,32.0917 -8.95521,46.40051 -34.13113,86.99536 -70.82015,114.19377 -24.0687,17.84269 -51.67376,28.43389 -83.95363,32.21041 -5.07317,0.59352 -9.79906,0.81946 -19.37113,0.92612 -6.963486,0.0776 -13.265157,0.0699 -14.003709,-0.017 z"
   id="path3795"
   inkscape:connector-curvature="0" /><path
   style="fill:#f2f2f2;stroke-width:0.38366336"
   d="m 87.858911,281.23208 c -0.738552,-0.0869 -3.32828,-0.34169 -5.754951,-0.56612 -16.608108,-1.536 -33.662842,-5.76943 -50.451732,-12.52344 -10.155189,-4.08533 -26.9263106,-13.01504 -29.8101789,-15.87229 -1.8690096,-1.85176 -1.88388562,-3.94031 -0.043643,-6.12732 l 1.0313036,-1.22563 9.9991303,0.2694 c 13.813945,0.37218 22.579951,-0.34315 33.128856,-2.7034 11.611683,-2.59804 22.33614,-6.7705 33.483756,-13.02721 l 3.974042,-2.23047 -5.163809,-1.66333 C 63.758985,220.89396 51.963359,212.43483 43.517079,200.65264 39.245643,194.69418 34.14604,183.88518 34.14604,180.79 c 0,-0.88426 0.409491,-1.72929 1.39714,-2.88314 1.546442,-1.80666 0.841431,-1.70754 6.947538,-0.97687 1.107828,0.13256 2.014232,0.087 2.014232,-0.1012 0,-0.18822 -1.73979,-1.60458 -3.866198,-3.14746 -6.727006,-4.88097 -13.32875,-11.719 -17.459018,-18.0839 -6.544217,-10.0849 -10.436042,-22.62291 -10.549285,-33.98588 -0.07196,-7.22076 2.01282,-8.55208 8.8547,-5.65453 5.035535,2.13256 6.458735,2.63292 6.726705,2.36495 0.135856,-0.13585 -0.971748,-1.94385 -2.461343,-4.01778 -9.043184,-12.5906 -13.077007,-25.853156 -12.582668,-41.369784 0.307245,-9.644021 2.48915,-18.497689 6.552384,-26.588072 2.931271,-5.836511 5.066254,-7.490529 7.826335,-6.063236 0.641854,0.331915 3.65697,3.325382 6.700259,6.652148 11.054833,12.084574 21.077149,20.77533 33.073032,28.678968 17.540257,11.556616 36.835057,19.853133 56.219747,24.173769 6.37264,1.420387 16.16609,3.085207 20.54088,3.491797 l 2.68384,0.24944 -0.007,-7.815972 c -0.007,-8.2306 0.27688,-10.704154 1.99702,-17.407555 3.58686,-13.978024 11.0876,-25.573031 22.70934,-35.105198 8.95134,-7.341913 18.84912,-11.763681 30.94106,-13.822723 4.33505,-0.73818 5.86518,-0.818449 12.0626,-0.632792 8.05989,0.241451 12.05087,0.931428 19.25361,3.328642 8.1937,2.727027 16.80071,7.646599 22.43741,12.824714 l 2.74919,2.525523 2.81393,-0.587375 c 6.68485,-1.395383 17.91838,-5.712645 27.99207,-10.757894 6.8848,-3.44815 8.14322,-3.631687 10.1695,-1.483203 1.01277,1.07384 1.29221,1.694214 1.29221,2.868717 0,3.807839 -6.02222,15.612707 -11.79493,23.120623 -0.94283,1.226241 -1.62073,2.32304 -1.50644,2.437332 0.26362,0.263619 3.92094,-0.932787 10.99939,-3.59819 5.91883,-2.228746 7.36487,-2.389406 8.91113,-0.99006 1.2596,1.139932 1.92085,2.777514 1.66729,4.129092 -0.81118,4.32398 -15.95772,21.722331 -26.17281,30.063894 l -3.89266,3.178713 -0.2474,6.404792 c -0.55797,14.44495 -1.35249,22.48929 -3.13178,31.70847 -11.95093,61.92251 -53.00029,113.09244 -108.34664,135.0591 -10.01845,3.97627 -23.27997,7.70105 -34.14991,9.59172 -11.14579,1.93866 -18.11477,2.52868 -31.64836,2.67948 -6.963486,0.0776 -13.265157,0.0699 -14.003709,-0.017 z"
   id="path3797"
   inkscape:connector-curvature="0" /></svg>