<?xml version="1.0" encoding="UTF-8" standalone="no"?>
<!-- Generator: Adobe Illustrator 18.1.1, SVG Export Plug-In . SVG Version: 6.00 Build 0)  -->

<svg
   xmlns:dc="http://purl.org/dc/elements/1.1/"
   xmlns:cc="http://creativecommons.org/ns#"
   xmlns:rdf="http://www.w3.org/1999/02/22-rdf-syntax-ns#"
   xmlns:svg="http://www.w3.org/2000/svg"
   xmlns="http://www.w3.org/2000/svg"
   xmlns:sodipodi="http://sodipodi.sourceforge.net/DTD/sodipodi-0.dtd"
   xmlns:inkscape="http://www.inkscape.org/namespaces/inkscape"
   version="1.1"
   id="Capa_1"
   x="0px"
   y="0px"
   viewBox="0 0 612 612"
   style="enable-background:new 0 0 612 612;"
   xml:space="preserve"
   sodipodi:docname="van.svg"
   inkscape:version="0.92.4 (5da689c313, 2019-01-14)"><metadata
   id="metadata6088"><rdf:RDF><cc:Work
       rdf:about=""><dc:format>image/svg+xml</dc:format><dc:type
         rdf:resource="http://purl.org/dc/dcmitype/StillImage" /></cc:Work></rdf:RDF></metadata><defs
   id="defs6086" /><sodipodi:namedview
   pagecolor="#ffffff"
   bordercolor="#666666"
   borderopacity="1"
   objecttolerance="10"
   gridtolerance="10"
   guidetolerance="10"
   inkscape:pageopacity="0"
   inkscape:pageshadow="2"
   inkscape:window-width="1920"
   inkscape:window-height="1001"
   id="namedview6084"
   showgrid="false"
   inkscape:zoom="0.38562092"
   inkscape:cx="-120.58475"
   inkscape:cy="306"
   inkscape:window-x="-9"
   inkscape:window-y="-9"
   inkscape:window-maximized="1"
   inkscape:current-layer="Capa_1" />
<g
   id="g6051"
   style="fill:#ff4b59;fill-opacity:0.93034828">
	<path
   d="M611.495,315.708l-49.606-145.384c-1.305-3.823-4.897-6.393-8.936-6.393H420.377V86.984c0-5.215-4.227-9.442-9.442-9.442   H9.442C4.227,77.542,0,81.769,0,86.984V442.47c0,2.504,0.996,4.907,2.766,6.676c1.771,1.771,4.173,2.766,6.678,2.766l32.128-0.007   c3.661,46.128,42.343,82.551,89.395,82.551c47.061,0,85.747-36.44,89.392-82.581l151.927-0.028   c3.632,46.156,42.323,82.61,89.395,82.61c47.081,0,85.78-36.458,89.41-82.617h51.465c5.215,0,9.442-4.227,9.442-9.442v-123.64   C612,317.72,611.83,316.689,611.495,315.708z M130.968,484.725c-22.043,0-39.976-17.933-39.976-39.974   c0-22.041,17.933-39.974,39.976-39.974c22.04,0,39.971,17.933,39.971,39.974C170.94,466.792,153.007,484.725,130.968,484.725z    M461.684,484.725c-22.041,0-39.972-17.933-39.972-39.974c0-22.041,17.931-39.974,39.972-39.974   c22.048,0,39.986,17.933,39.986,39.974C501.67,466.792,483.732,484.725,461.684,484.725z M498.561,334.586l-12.82-38.886   c-1.275-3.873-4.892-6.487-8.966-6.487h-0.008l-60.19,0.054v-65.474h97.96l36.463,110.772L498.561,334.586z"
   id="path6049"
   style="fill:#ff4b59;fill-opacity:0.93034828" />
</g>
<g
   id="g6053">
</g>
<g
   id="g6055">
</g>
<g
   id="g6057">
</g>
<g
   id="g6059">
</g>
<g
   id="g6061">
</g>
<g
   id="g6063">
</g>
<g
   id="g6065">
</g>
<g
   id="g6067">
</g>
<g
   id="g6069">
</g>
<g
   id="g6071">
</g>
<g
   id="g6073">
</g>
<g
   id="g6075">
</g>
<g
   id="g6077">
</g>
<g
   id="g6079">
</g>
<g
   id="g6081">
</g>
</svg>